<svg width="1000" height="500" xmlns="http://www.w3.org/2000/svg"><path fill="#fafafa" d="M0 0h1000v500H0z"/><circle cx="500" cy="250" r="120" fill="#fff" stroke="#ccc" stroke-width="8"/><g stroke="#666" stroke-width="4"><path d="M500 130v20M620 250h-20M500 370v-20M380 250h20"/><g stroke-width="2"><path d="m559 147.809-4 6.928M602.191 191l-6.928 4M602.191 309l-6.928-4M559 352.191l-4-6.928M441 352.191l4-6.928M397.809 309l6.928-4M397.809 191l6.928 4M441 147.809l4 6.928"/></g></g><circle cx="500" cy="250" r="6" fill="#666"/><path stroke="#333" stroke-width="8" stroke-linecap="round" d="M500 250v-70"><animateTransform attributeName="transform" type="rotate" from="0 500 250" to="360 500 250" dur="12s" repeatCount="indefinite"/></path><path stroke="#555" stroke-width="6" stroke-linecap="round" d="M500 250v-95"><animateTransform attributeName="transform" type="rotate" from="0 500 250" to="360 500 250" dur="4s" repeatCount="indefinite"/></path><path stroke="#ff6b6b" stroke-width="2" stroke-linecap="round" d="M500 250V135"><animateTransform attributeName="transform" type="rotate" from="0 500 250" to="360 500 250" dur="2s" repeatCount="indefinite"/></path></svg>