<svg version="1.1" id="Capa_1" xmlns="http://www.w3.org/2000/svg" x="0" y="0" viewBox="0 0 194.12 194.12" style="enable-background:new 0 0 194.12 194.12" xml:space="preserve"><style>.st2{fill:#d1eaea}.st3{fill:#cbe3cb}.st4{fill:#ff7993}</style><g style="opacity:.8"><path d="M132.77 155.28c10.35-16.7 12.32-31.37 14.95-46.77 1.58-9.2 3.16-18.59 1.92-27.83-1.83-13.68-9.92-25.8-20.43-33.5-10.52-7.7-23.26-11.27-35.95-12-8.47-.48-17.32.35-24.73 4.88C52.28 50 48.48 73.19 46.44 93.32c-.81 8.01-1.62 16.02-2.44 24.03-.84 8.32-1.69 16.76-.52 25.03 3 21.19 20.29 38.62 39.85 41.15s39.88-9.44 49.44-28.25" style="fill:#cbe7e7"/><path class="st2" d="m130.2 153.97-.23.09.16.62zM129.53 157.22c.12-.04.21.07.33.02l-.21-2.26c-1.03.37.58 1.99-.12 2.24zM129.15 157.64c-.65.45-.31 1.02-.23 1.28-.25-.47.88-1.07.23-1.28zM74.32 179.39c.06.02.15.04.23.04-.11-.05-.18-.06-.23-.04z"/><path class="st2" d="m58.88 171.98-.46.22c1.44.87 2.85 1.87 4.16 3.06.7.54 1.41 1.08 2.13 1.6.36.26.72.51 1.1.74.39.21.78.41 1.18.58l-.29.03c.95.55 1.86 1.17 2.85 1.62.98.46 1.96.91 2.94 1.33 1.01.34 2.02.68 3.03 1.01 1.01.32 2.06.49 3.08.74 4.14.81 8.35.91 12.61.48-.13.06-.17.21-.3.28.41-.2.84-.55 1.3-.55.13.09-.11.23-.25.3 1.92.71 5.2-1.2 6.4-.86.48-.21.61-.59.28-.76.8-.23 1.6-.47 2.41-.71.8-.26 1.58-.59 2.38-.89l1.19-.46 1.16-.55c.77-.37 1.55-.73 2.31-1.13 3-1.68 5.86-3.62 8.31-5.91.32-.1.5.03.6.3.93-1.14 1.88-2.25 2.89-3.29.47-.55.96-1.09 1.46-1.62s1.02-1.04 1.49-1.6c.96-1.1 2-2.13 2.9-3.28l1.41-1.68 1.28-1.78c-.16-.37-.62.3-.6-.37-.7.64-.94 1.5-1.31 2.25-.36.76-.73 1.51-1.48 1.98l-.12-.37c-.92.82.52.74-.64 1.43-.54.2-.23-.36-.41-.2-1.59 2.06-3.66 3.76-4.99 5.96-.93-.16-2.13 1.83-3.35 1.82-.37.62-.96.96-.89 1.49-3.84 2.47-7.9 4.67-12.24 6.28-4.33 1.61-8.97 2.61-13.63 2.59-.54.17-1.11.3-1.69.39-.58.04-1.17.04-1.77.01-.6-.03-1.21-.08-1.82-.16-.61-.13-1.21-.28-1.83-.43-.61-.16-1.23-.29-1.84-.5-.61-.21-1.21-.42-1.83-.64-1.24-.36-2.44-.87-3.7-1.21-.02-.06.01-.1.06-.13-.87-.1-1.86-.45-2.87-.87-.51-.21-1.02-.43-1.51-.67-.48-.27-.93-.57-1.35-.86l-1.8-.38c-4.95-3.79-9.4-8.19-13.11-13.2-3.65-5.04-6.41-10.82-7.68-16.91-1.52-6.9-1.08-13.64-.56-20.29.58-6.68 1.16-13.46.95-20.62.13.03.21-.08.23.3.14-4.11 1.01-7.79 1.11-11.66l.13.03c-.08-4.82.53-9.76 1.35-14.61.82-4.86 1.85-9.58 2.6-14.16 1.7-5.32 3.93-10.91 7.36-15.87 3.44-4.91 8.08-9.18 13.55-11.57l.08.26c4.27-2.09 9.04-2.67 13.67-2.65 4.65.02 9.26.62 13.95 1.06 4.73 1.02 9.64 1.8 14.47 3.22 2.42.69 4.79 1.57 7.06 2.66 2.27 1.08 4.42 2.4 6.31 4 2.11 2.28 5 4.2 7.69 6.47 2.69 2.23 5.15 4.82 6.15 7.61 2.37 5.49 4.43 10.73 5.91 16.24 1.52 5.47 2.25 11.29 2.35 17.25-.84 5.41-1.53 10.8-2.24 16.15-.71 5.33-1.5 10.67-3.4 15.66-.09 2.54-1.01 5.05-2.17 7.52-1.14 2.48-2.47 4.91-3.36 7.51l.39-.06c-1.64 1.44-.42 4.65-2.32 5.16l.03-.22c-1.15.6.54 2.99-.56 3.17l.26.33c-.51 1.19-.45-.06-1.06.74-.14.35.54.45-.02 1.03-.72-.3-1.02.43-1.34 1.14-.34.69-.7 1.37-1.47.96.35-.59-1.13.58-.66-.93-.38.29-1.37 2.13-.65 2.36.57.57.72 1.65 1.91.85l-.35-.53c.71-.08.42-.14.86-.05.93-1.44 1.8-1.21 2.7-2.14-.02 0-.04.01-.06-.03-.19-1.08.72-1.92 1.13-2.47l.41-.09c.78-.07-.29-2.36.5-1.38 1.33-3.29 2.95-7.01 4.21-10.75-.22-.66.97-2.85-.09-2.29 1.23-.63 2.29-3.4 2.53-4.46.08.06.16.13.09.29 1.74-1.74-.47-2.7 1.45-4.27-.96-.53 1.12-3.44.1-4.78.28-.19.51-.23.68-.1.72-3.47 1.75-7.23 2.29-10.14-.51-2.64 1.45-5.95.52-8.33.56-1.74 1.54-4.6 1.31-7.22l.13.27c.28-2.88.43-6.56-.38-8.57 1.26-.85 1-2.14 1.34-3.44-.33-.98-.51-2.47-.82-4.09-.31-1.61-.68-3.35-1.29-4.76.49-.6-.84-2.35-.09-2.72-1.92-3.9-4.01-8.06-6.4-12.16-2.38-4.1-5.09-8.13-7.95-11.73l.14.05c-1.18-.49-2.84-.66-4.11-.94-.04-.13.06-.23.24-.06-.66-.47-1.15-1.09-1.68-1.69-.52-.61-1.04-1.23-1.76-1.62.09-.1.09-.11.38-.06-1.44-.58-2.25-2.35-4.15-2.72l.02-.24-1.16-.32c.16-.23.4-.56.89-.18-6.05-3.66-12.98-5.87-19.99-7.02-3.51-.58-7.05-.9-10.59-1.06-3.54-.16-7.09-.18-10.66.09l.5-.3c-.91.22-1.82.48-2.71.75 0-.14.12-.22.24-.3-1.79 0-3.58.41-5.31.97-1.73.57-3.37 1.31-4.99 1.94-.04-.13.35-.59-.17-.53-1.05.85-2.08 1.11-2.94 1.42-.85.31-1.52.66-1.61 1.7-.14.01-.4-.24-.25-.5l-2.15 1.7c-.68.61-1.32 1.26-1.99 1.88-.69.6-1.28 1.29-1.88 1.98-.58.7-1.26 1.32-1.77 2.08l-1.64 2.17c-.51.74-.98 1.52-1.48 2.27-.52.75-.95 1.53-1.38 2.32-.42.79-.91 1.55-1.29 2.36-.26 1.52-.77 2.95-1.17 4.43-.22.74-.46 1.47-.72 2.2-.23.74-.46 1.48-.69 2.23-.95 2.97-1.7 6.04-1.8 9.1l-.27-.09c-.29 3.93-.95 7.87-1.59 11.87-.62 4-1.25 8.04-1.55 12.06-.45 3.32-.35 5.6-.67 8.95l-.36.05c.77 5.77-2.43 11.71-1.48 17.75l-.44-.45c.65.97-.53 3.56.76 3.29l-.45 1.02c.72 2.05.48 3.84.22 5.78-.25 1.93-.52 4.03.27 6.43l-.33-.29c.34 1.29.76 2.75.68 3.75-.07-.14-.14-.06-.28-.35-.1 1.06-.07 2.15.13 3.22.24 1.06.58 2.12.96 3.16.87 2.06 1.89 4.05 2.82 6.01l-.71-.22c.37.41.71.96 1.04 1.58.34.62.7 1.29 1.08 1.98.38.69.72 1.43 1.13 2.1.43.66.86 1.28 1.31 1.82l-.31.01 1.08.96-.41.34c.53.73 1.11 1.42 1.68 2.1l.86 1 .94.92 1.88 1.82c.66.55 1.32 1.12 1.97 1.71z"/><path class="st2" d="M91.95 183.42c-.01 0-.03 0-.04-.01-.1.05-.05.04.04.01zM137.23 152.46c-.11.13-.2.24-.31.34.11.03.22-.22.31-.34z"/></g><path class="st3" d="M93.56 138.23c-1.89-3.19-3.81-5.97-6.49-8.56-4.38-4.23-9.89-7.26-14.42-11.3.9 2.19 2.37 4.46 3.23 6.34 1.59 3.51 3.32 6.94 5.62 10.04 4.05 5.44 8.89 10.87 16.17 11.24-.65-2.67-2.75-5.48-4.11-7.76zM103.67 104.39c1.75-.76 3.42-1.77 5.04-2.78 3.87-2.4 6.38-5.6 9.09-9.18 4.44-5.88 6.56-12.77 8.16-19.85-2.5 1.23-5.08 3.22-7.24 4.7-3.34 2.29-6.39 5.01-9.13 7.99-5.48 5.95-8.34 12.99-10.78 20.55 1.57-.04 3.76-.96 4.86-1.43zM113.11 153.17c-3.5 1.41-7.11 2.73-10.29 4.8-3.43 2.23-6.5 5.63-8.86 9.01 1.63.89 3.55.65 5.33.87 3.07.39 5.13-.06 7.94-1.41 3.77-1.8 7.42-4.12 10.75-6.62 5.35-4.02 8.53-9.52 12.09-14.91-5.3 3.41-11 5.86-16.96 8.26z"/><path class="st4" d="M81.07 27.65c.39-.44.83-.8 1.32-1.11-.05-.02-.1-.04-.14-.08-1.38-1.15-1.98-3.32-3.92-3.51-1.58-.15-3.42 1.08-4.36 2.29-1.36 1.75-.76 3.77-.02 5.64.42 1.05 1.33 3.91 2.86 3.79.47-.04.67.32.64.69.88.01 1.81.19 2.76.51.91.31 1.79.71 2.66 1.14-.31-.37-.6-.75-.88-1.14-1.72-2.38-3.15-5.7-.92-8.22zM86.12 25.39c-.5-2.75-.73-5.89.19-8.32-.33-.22-.64-.45-1.01-.7-1.08-.73-2.11-.54-3.27-.11-2.51.92-3.1 2.95-2.54 5.43 1.65.66 2.33 2.57 3.8 3.8.17.14.23.3.23.45.82-.32 1.7-.51 2.6-.55z"/><path class="st4" d="M92.95 31.74c-1.08-2.09-2.31-3.83-4.63-4.55-.2-.06-.41-.11-.62-.15-.28.45-1.08.48-1.28-.13-2.18-.02-4.37 1.02-4.88 3.29-.62 2.77 1.93 5.52 3.75 7.37 1.98 2 3.92 2.77 6.2 3.65.07-.04.14-.08.22-.1 1.53-.51 2.94-.1 4.43.36.06.02.12.04.18.05-.21-.96-.43-1.96-.62-2.98-.73-2.34-1.62-4.63-2.75-6.81zM86.26 40.37c-.65-.31-1.28-.61-1.86-.93-1.62-.88-3.32-1.92-5.12-2.38-1.91-.48-2.87-.56-4.2.9-1.19 1.29-1.45 2.09-1.23 3.82.71 5.6 8.52 5.6 12.65 4.87 1.86-.33 3.68-.87 5.49-1.43-.82-.6-1.49-1.34-1.7-2.24-.05-.21.01-.41.12-.56-1.43-.46-2.78-.95-4.11-2.02-.02 0-.03-.02-.04-.03zM117.47 34.99c-.05-.16-.09-.32-.14-.48-.22-.04-.44-.07-.66-.08-2.19-.14-4.75 1.1-6.57 2.14-.39.23-.78.47-1.16.72-1.55 2.94-3.77 5.59-6.58 7.04-.24.48-.46.96-.64 1.47 0 .03-.01.07-.01.1.01.01.02.01.02.01 2.45 2.31 7.8 2.79 10.83 1.96 3.12-.85 6.34-3.01 8.13-5.73 1.71-2.59.75-5.62-1.6-6.99-.19.1-.38.22-.58.3-.45.21-.9.01-1.04-.46z"/><path class="st4" d="M120.49 34.2c1.64.87 2.85 2.32 2.93 4.44.04 1.03-.21 2.02-.63 2.96.02.04.05.06.07.1-.1-.22 1.37-.56 1.61-.61 1.23-.3 2.01-.4 3.09-1.2 1.3-.97 2.48-2.2 2.66-3.89.48-4.47-3.88-5.65-7.32-4.8h-.04c-.61 1.16-1.41 2.19-2.37 3zM87.57 25.47c1.4.19 2.75.75 3.8 1.65 1.51 1.29 2.69 3.08 3.65 5.06.01-2.63.52-5.19 1.94-7.44.4-.63.91-1.22 1.5-1.77.4-1.8-.88-4.5-1.79-6.07-1.21-2.09-3.51-2.77-5.77-2.2-1.33.33-2.24 1-2.84 1.87.19.42-.06 1-.54 1.03-.92 2.29-.46 5.39.05 7.87zM107.83 36.28c.43-.84.8-1.7 1.1-2.53 1.42-3.94 2.03-10.89-3.52-12.05-5.02-1.05-8.33 4.73-8.82 8.74-.27 2.26-.06 4.53.32 6.78.51 1.71.92 3.39 1.28 4.9.56.2 1.12.43 1.63.75.4.24.82.61 1.17 1.04 1.5-3.07 3.95-5.69 6.84-7.63zM110.95 31.96c-.24 1-.57 2.02-.97 3.04 1.09-.57 2.22-1.04 3.36-1.4 1.62-.52 3.72-.55 5.59-.01 3.05-2.11 4.52-6.75 3.76-10.18-.69-3.14-3.52-4.89-6.55-3.54-2.39 1.06-3.68 2.95-4.97 5.1-.07.11-.15.19-.25.24.61 2.23.5 4.82.03 6.75z"/><path class="st4" d="M107.43 20.68c1.36.58 2.29 1.64 2.91 2.91.11-.18.23-.36.34-.54a.708.708 0 0 1 .11-.84c1.03-1.05.18-4.23-.16-5.46-.51-1.84-1.39-3.92-3.48-4.31-4.62-.87-7.93 4.86-6.1 8.74 2.04-1 4.37-1.35 6.38-.5zM90.4 42.42h.01-.01z"/><path d="M74.63 187.06c4.94-1.49 9.29-6.1 12.48-10 3.27-3.98 5.97-8.51 7.85-13.31 4.48-11.39 4.61-24.7 4.47-36.77-.17-13.72-1.7-27.21-2.76-40.87-.53-6.86-1.05-13.75-1.26-20.63-.21-6.67-.46-13.61.87-20.18.18-.89-1.17-1.33-1.36-.44-2.33 11.55-.85 24.01-.06 35.66.86 12.69 2.58 25.31 2.98 38.03.4 12.62.64 25.75-2.19 38.14-1.29 5.63-3.65 10.93-6.86 15.73-3.27 4.88-8.61 11.48-14.46 13.24-.88.27-.58 1.66.3 1.4z"/><path d="M92.22 42.53c-.41-.2-.61-.3-1.04-.43-.51-.15-1.04.3-.91.83.48 2.04 3.25 3.32 5.05 3.81 1.57.43 4.13 1.31 5.63.24 1.72-1.23.19-3.37-1.13-4.18-1.13-.69-2.42-1.01-3.67-1.39-1.49-.46-2.9-.87-4.43-.36-.28.09-.57.33-.56.66.04 1.85 1.34 2.58 2.87 3.31.98.46 2.74 1.5 3.68.39 2.07-2.45-5.35-3.33-6.16-3.4-.51-.04-.78.43-.73.86.28 2.68 6.07 4.43 8.19 3.82.29-.09.55-.33.56-.66.01-1.61-1.42-2.38-2.67-3.09-1.52-.87-3.05-1.6-4.84-1.43-.37.03-.63.51-.54.85.73 2.74 6.01 4.54 8.51 3.78.4-.12.58-.44.54-.85-.31-3.06-5.76-3.09-3.98-.25.48.77 1.75.11 1.26-.67-.29-.35-.27-.41.07-.17.59.26 1.01.73 1.26 1.39.18-.28.36-.57.54-.85-1.65.5-6.3-.79-6.81-2.7-.18.28-.36.57-.54.85 1.11-.1 5.79 1.41 5.77 3.06.19-.22.37-.44.56-.66-1.4.41-6.31-.96-6.5-2.73-.24.29-.49.58-.73.86 1.74.14 3.15.48 4.74 1.11.49.2.41.11-.03-.15-.35-.21-.84-.32-1.21-.5-.9-.42-2.36-.88-2.39-2.12-.19.22-.37.44-.56.66 1.69-.56 3.61.26 5.25.79.78.26 1.65.55 2.27 1.11.95.86.65 1.68-.61 1.66-1.15-.02-2.33-.38-3.42-.7-1.14-.33-3.51-1.33-3.84-2.69-.3.28-.61.55-.91.83.24.09.47.18.71.27.8.44 1.57-.76.75-1.16z"/><path d="M93.32 41.89c-3.12-1.28-5.55-1.85-8.04-4.37-1.83-1.85-4.38-4.6-3.75-7.37.66-2.94 4.14-3.82 6.77-3.01 2.31.71 3.55 2.46 4.63 4.55 1.77 3.44 3.01 7.13 3.9 10.89.21.89 1.6.59 1.39-.31-1.16-4.9-2.87-11.78-6.87-15.21-2.84-2.43-7.75-2.36-10.3.53-2.23 2.52-.79 5.84.91 8.21 1.21 1.69 2.7 3.25 4.32 4.55 2.09 1.68 4.22 1.91 6.61 2.89.85.35 1.28-1 .43-1.35z"/><path d="M97.9 42.07c-.84-3.8-1.8-7.76-1.32-11.68.49-4.01 3.8-9.79 8.82-8.74 5.55 1.16 4.93 8.11 3.52 12.05-1.28 3.57-3.78 7.56-7.26 9.34-.81.42-.15 1.68.67 1.26 4.48-2.29 7.48-7.65 8.62-12.39.88-3.64.53-9.56-3.53-11.28-3.69-1.57-8.48.92-10.47 4.05-3.31 5.21-1.66 12.1-.43 17.69.19.9 1.58.59 1.38-.3z"/><path d="M101.68 45.77c1.47-3.98 4.76-7.16 8.4-9.25 1.82-1.05 4.38-2.29 6.57-2.14 3.97.26 6.23 4.36 4.01 7.72-1.79 2.72-5 4.88-8.13 5.73-3.03.83-8.39.35-10.83-1.96-.66-.63-1.71.34-1.05.97 3.24 3.06 9.66 3.45 13.62 1.88 3.82-1.52 9.29-5.4 9.12-10.13-.17-4.89-6.37-6.22-10.07-5.05-5.64 1.79-10.93 6.19-13 11.8-.31.86 1.04 1.29 1.36.43zM94.19 43.35c-1.75-1.68-3.99-2.45-6.12-3.55-2.6-1.35-5.1-3.04-7.89-3.99-3.62-1.24-7.13-.35-7.76 3.79-.7 4.58 2.19 7.42 6.46 8.35 6.23 1.36 11.93-1.24 17.88-2.68.89-.22.59-1.61-.31-1.39-3.34.81-6.59 2.13-9.98 2.72-4.14.73-11.95.73-12.65-4.87-.22-1.74.04-2.53 1.23-3.82 1.34-1.46 2.3-1.38 4.2-.9 1.8.46 3.5 1.49 5.12 2.38 2.75 1.5 6.5 2.76 8.77 4.93.66.63 1.71-.33 1.05-.97zM87.77 26.49c-.86-3.93-2.2-10.51 3.1-11.84 2.27-.57 4.57.11 5.77 2.2.91 1.57 2.2 4.28 1.79 6.08-.2.89 1.15 1.33 1.36.44.53-2.34-.9-5.83-2.23-7.76-1.37-1.98-3.63-2.8-5.98-2.52-7.08.83-6.34 8.51-5.2 13.71.2.89 1.59.58 1.39-.31z"/><path d="M76.79 34.61c-1.52.12-2.44-2.74-2.86-3.79-.74-1.86-1.34-3.88.02-5.64.94-1.21 2.77-2.44 4.36-2.29 1.94.19 2.54 2.36 3.92 3.51.69.58 1.75-.38 1.05-.97-1.87-1.56-2.45-4.22-5.35-4.03-2.07.13-4.4 1.65-5.49 3.4-1.19 1.9-.72 4.11.01 6.08.67 1.78 1.89 5.33 4.28 5.14.88-.06.97-1.48.06-1.41zM111.15 24.9c1.29-2.15 2.58-4.04 4.97-5.1 3.03-1.34 5.86.41 6.55 3.54.85 3.82-1.07 9.15-4.86 10.81.34.16.69.32 1.03.48-.05-.17-.1-.34-.15-.5-.26-.88-1.65-.57-1.39.31.05.17.1.34.15.5.14.47.59.67 1.03.48 5.22-2.28 7.22-10 4.7-14.79-1.2-2.27-3.34-3.19-5.87-2.71-3.58.67-5.6 3.31-7.35 6.21-.48.79.72 1.55 1.19.77z"/><path d="M101.04 21.13c-1.84-3.88 1.47-9.61 6.1-8.74 2.09.39 2.96 2.47 3.48 4.31.34 1.23 1.19 4.41.16 5.46-.64.65.32 1.7.97 1.05 1.69-1.73.69-5.65 0-7.68-.72-2.12-2.04-4.21-4.43-4.58-5.78-.91-9.86 5.94-7.54 10.85.39.83 1.65.16 1.26-.67zM79.47 21.64c-.55-2.48.03-4.51 2.54-5.43 1.16-.43 2.18-.61 3.27.11.66.44 1.16.89 1.92 1.18.86.33 1.29-1.03.44-1.36-1.25-.47-2.01-1.65-3.42-1.79-1.29-.12-2.77.44-3.9 1.04-2.45 1.3-2.79 4.09-2.24 6.55.19.9 1.58.6 1.39-.3zM122.87 31.15c3.44-.85 7.8.33 7.32 4.8-.18 1.69-1.36 2.92-2.66 3.89-1.07.8-1.86.9-3.09 1.2-.23.06-1.7.39-1.61.61-.37-.84-1.63-.17-1.26.67l.09.21c.09.2.36.39.59.38 4.18-.22 9.44-2.7 9.38-7.56-.02-2-1.12-4.14-2.87-5.17-2.03-1.2-4.04-.95-6.21-.42-.87.22-.57 1.61.32 1.39zM97.71 44.59c1.73-2.2 2.51-5.18 3.31-7.82.49-1.61.84-3.27 1.19-4.92.31-1.47.21-2.83.17-4.32-.01-.46-.72-.49-.71-.04.04 1.66.08 3.09-.28 4.72-.32 1.46-.62 2.91-1.06 4.34-.78 2.57-1.56 5.52-3.23 7.66-.28.36.33.74.61.38z"/><path d="M98.45 44.52c3.27.42 5.9.08 8.86-1.4 1.59-.79 3.18-1.57 4.78-2.33 1.39-.66 2.52-1.7 3.86-2.36.41-.2.08-.83-.33-.63-1.16.56-2.09 1.48-3.25 2.06-1.4.7-2.84 1.32-4.24 2.03-1.5.77-3 1.61-4.67 1.96-1.65.34-3.32.17-4.97-.04-.46-.06-.49.65-.04.71z"/><path d="M87.76 32.61c.38 1.45 1.72 2.73 2.63 3.88 1.18 1.49 2.43 2.99 3.79 4.32 1.06 1.03 2.27 1.9 3.54 2.63.62.36 1.27.69 1.96.91.16.05 1.88.3 1.89.33.18.42.81.09.63-.33l-.09-.21a.347.347 0 0 0-.3-.19c-2.85-.01-5.61-2.08-7.53-4.05-.96-.99-1.86-2.05-2.74-3.11-.99-1.19-2.71-2.84-3.11-4.35-.1-.42-.79-.27-.67.17z"/><path d="M80.05 43.54c3.44 1.08 6.19 2.58 9.9 2.1 3.82-.5 7.63-.74 11.23-2.27.42-.18.09-.81-.33-.63-3.37 1.44-6.88 1.6-10.45 2.12-1.94.28-3.71.3-5.59-.32-1.53-.5-2.99-1.19-4.53-1.68-.45-.14-.67.54-.23.68zM97.47 105.83c.03.06.07.11.1.17.31.51 1.11.49 1.31-.11 2.47-7.71 5.34-14.89 10.91-20.95 2.74-2.98 5.79-5.7 9.13-7.99 2.55-1.75 5.67-4.21 8.57-5.28-.34-.28-.67-.57-1.01-.85-1.64 7.58-3.74 15.01-8.47 21.28-2.71 3.59-5.22 6.78-9.09 9.18-1.62 1.01-3.29 2.02-5.04 2.78-1.31.57-4.18 1.78-5.7 1.35-.88-.25-1.32 1.1-.44 1.36 2.8.8 6.7-1.32 9.08-2.61 3.82-2.08 7.05-4.43 9.78-7.85 6.09-7.62 9.18-15.55 11.24-25.06.14-.65-.42-1.07-1.01-.85-3.22 1.19-6.73 3.95-9.53 5.96-3.4 2.43-6.5 5.27-9.26 8.4-5.32 6.04-8.09 13.13-10.51 20.68.44-.04.87-.08 1.31-.11-.03-.06-.07-.11-.1-.17-.48-.78-1.74-.12-1.27.67z"/><path d="M99.76 105.83c3.57-1.88 5.85-5.08 8.73-7.8 2.74-2.58 6.14-4.88 8.42-7.9 2.01-2.65 3.62-5.88 5.14-8.84.75-1.47 1.15-3.05 1.75-4.56.86-2.17 2.59-4.03 3.89-5.95.51-.76-.69-1.53-1.2-.77-1.79 2.65-3.45 4.82-4.52 7.83-1.23 3.47-3.34 6.81-5.28 9.93-1.97 3.17-5.12 5.59-7.9 8.04-3.27 2.88-5.8 6.68-9.71 8.74-.79.45-.13 1.71.68 1.28zM98.27 145.68c-7.5-.19-12.44-5.72-16.56-11.26-2.31-3.1-4.03-6.54-5.62-10.04-1.19-2.62-3.59-5.99-3.96-8.85-.41.21-.81.42-1.22.64 4.82 5.04 11.33 8.32 16.36 13.17 2.68 2.59 4.6 5.37 6.49 8.56 1.44 2.43 3.74 5.46 4.24 8.27.16.9 1.55.59 1.39-.31-.44-2.54-2.19-5.04-3.51-7.25-1.83-3.07-3.45-5.96-5.91-8.56-5.38-5.68-12.66-9.24-18.01-14.85-.52-.54-1.3-.04-1.22.64.41 3.2 3.02 6.87 4.36 9.8 1.76 3.85 3.79 7.43 6.38 10.78 4.22 5.47 9.31 10.5 16.72 10.69.91.01.98-1.41.07-1.43z"/><path d="M99.33 145.44c-2.76.17-6.81-3.88-8.61-5.57-1.85-1.74-3.69-3.51-5.36-5.41-3.8-4.31-8.49-8.78-11.33-13.82-.45-.8-1.71-.14-1.26.67 1.57 2.79 3.94 5.25 6.01 7.67 2.33 2.72 4.49 5.6 7.02 8.12 2.12 2.12 4.28 4.23 6.65 6.06 1.78 1.38 4.37 3.86 6.8 3.7.91-.05.99-1.47.08-1.42zM93.65 167.4c2.42-3.62 5.7-7.38 9.39-9.77 3.18-2.07 6.79-3.39 10.29-4.8 7.18-2.89 13.98-5.83 20.18-10.47-.36-.3-.72-.6-1.08-.91-4.54 6.32-7.83 13.22-14.22 18.02-3.33 2.51-6.99 4.82-10.75 6.62-2.82 1.35-4.87 1.8-7.94 1.41-1.83-.23-3.82.05-5.48-.95-.79-.47-1.55.73-.77 1.2 1.52.91 2.81.89 4.56 1.02 1.8.13 3.37.7 5.2.44 4.67-.66 9.38-4.06 13.2-6.61 3.61-2.4 6.96-5.13 9.59-8.6 2.87-3.77 5.05-7.94 7.81-11.79.51-.7-.48-1.36-1.08-.91-7.07 5.29-15.1 8.25-23.21 11.6-7.06 2.92-12.61 7.33-16.87 13.72-.54.78.67 1.55 1.18.78z"/><path d="M93.29 166.86c7.19-2.13 14.87-4.63 21.46-8.27 5.9-3.25 11.05-8.38 16.37-12.44.73-.55-.24-1.6-.97-1.05-5.23 3.98-10.31 9.01-16.07 12.23-6.46 3.61-14.04 6.04-21.1 8.13-.87.27-.57 1.66.31 1.4z"/></svg>